<svg xmlns="http://www.w3.org/2000/svg" version="1.1" viewBox="1.9798431396484375 1.3365764617919922 495.002685546875 320.4331359863281" width="498.00" height="323.00">
<g stroke-width="2.00" fill="none" stroke-linecap="butt">
<path stroke="#89c665" d="&#10;  M 305.70 34.55&#10;  Q 292.05 48.57 283.32 65.19&#10;  Q 273.12 84.62 264.31 107.28"/>
<path stroke="#89c665" d="&#10;  M 249.04 225.23&#10;  C 248.31 256.89 252.03 288.65 262.34 318.74"/>
<path stroke="#5dc178" d="&#10;  M 192.92 197.51&#10;  Q 190.73 164.33 195.57 131.47"/>
<path stroke="#b9c552" d="&#10;  M 323.51 136.87&#10;  Q 315.12 165.25 303.60 192.50"/>
<path stroke="#4aa187" d="&#10;  M 167.20 210.80&#10;  L 147.20 202.75"/>
<path stroke="#e4c13b" d="&#10;  M 355.30 211.90&#10;  Q 346.23 224.98 337.55 238.20&#10;  Q 325.17 257.04 315.21 277.89"/>
<path stroke="#3cb88b" d="&#10;  M 172.11 12.38&#10;  Q 166.69 27.02 161.07 41.43&#10;  Q 156.24 53.85 154.30 60.24&#10;  Q 148.68 78.73 146.38 97.99&#10;  Q 145.79 102.88 145.35 107.75"/>
<path stroke="#429490" d="&#10;  M 117.68 159.70&#10;  Q 105.09 131.68 89.38 105.21"/>
<path stroke="#d94e51" d="&#10;  M 466.77 201.81&#10;  Q 459.74 183.09 445.57 167.32&#10;  Q 423.11 142.32 401.36 122.91&#10;  Q 395.90 118.03 383.11 108.08"/>
<path stroke="#d57f4c" d="&#10;  M 355.14 125.98&#10;  L 340.40 122.93"/>
<path stroke="#5a678d" d="&#10;  M 117.79 209.46&#10;  Q 92.59 164.19 72.90 115.99"/>
<path stroke="#586f8c" d="&#10;  M 130.00 224.82&#10;  Q 137.04 235.97 144.93 246.54&#10;  Q 154.71 259.63 167.28 270.28"/>
<path stroke="#6a4c8e" d="&#10;  M 149.38 315.77&#10;  Q 118.26 274.80 108.54 260.66&#10;  Q 97.03 243.90 89.53 231.23&#10;  Q 67.68 194.34 47.28 151.79&#10;  Q 41.59 139.91 35.30 118.94"/>
<path stroke="#eda739" d="&#10;  M 408.84 226.06&#10;  L 384.41 207.19"/>
<path stroke="#df7749" d="&#10;  M 423.63 209.28&#10;  Q 405.74 188.05 384.47 170.51"/>
<path stroke="#c33866" d="&#10;  M 410.07 66.41&#10;  Q 389.54 74.25 368.03 76.03&#10;  Q 354.21 77.18 340.37 77.51"/>
<path stroke="#a13483" d="&#10;  M 409.28 38.79&#10;  Q 374.91 40.67 340.46 40.01"/>
</g>
<path fill="#73c46d" d="&#10;  M 305.70 34.55&#10;  Q 292.05 48.57 283.32 65.19&#10;  Q 273.12 84.62 264.31 107.28&#10;  Q 260.88 100.81 254.76 99.69&#10;  Q 248.61 98.56 244.09 101.85&#10;  C 239.10 105.49 237.20 111.50 237.20 117.75&#10;  Q 237.14 162.91 237.10 208.83&#10;  Q 237.09 222.00 249.04 225.23&#10;  C 248.31 256.89 252.03 288.65 262.34 318.74&#10;  C 245.10 325.14 226.68 321.19 213.25 308.88&#10;  Q 196.85 293.84 196.51 270.97&#10;  Q 196.18 248.75 196.38 212.00&#10;  Q 196.42 203.77 192.92 197.51&#10;  Q 190.73 164.33 195.57 131.47&#10;  Q 199.99 137.09 207.02 136.73&#10;  Q 222.26 135.94 222.30 120.27&#10;  Q 222.46 52.49 222.42 37.77&#10;  Q 222.40 27.70 225.26 21.55&#10;  C 231.78 7.59 244.39 0.72 260.15 1.38&#10;  C 269.28 1.76 277.68 4.03 285.46 9.12&#10;  Q 299.35 18.22 305.70 34.55&#10;  Z"/>
<path fill="#32b292" d="&#10;  M 172.11 12.38&#10;  Q 166.69 27.02 161.07 41.43&#10;  Q 156.24 53.85 154.30 60.24&#10;  Q 148.68 78.73 146.38 97.99&#10;  Q 145.79 102.88 145.35 107.75&#10;  C 140.96 98.04 126.58 96.47 120.61 105.56&#10;  Q 117.65 110.06 117.63 114.26&#10;  Q 117.56 136.99 117.68 159.70&#10;  Q 105.09 131.68 89.38 105.21&#10;  Q 94.48 98.04 94.46 90.25&#10;  Q 94.43 67.63 94.64 45.01&#10;  Q 94.78 29.31 95.87 25.09&#10;  C 99.31 11.71 111.90 1.63 126.04 1.56&#10;  Q 136.79 1.50 144.73 1.95&#10;  Q 160.12 2.82 172.11 12.38&#10;  Z"/>
<path fill="#93348a" d="&#10;  M 409.28 38.79&#10;  Q 374.91 40.67 340.46 40.01&#10;  Q 340.31 31.02 343.38 23.03&#10;  Q 346.72 14.35 353.09 9.44&#10;  C 361.91 2.67 372.89 0.28 383.81 2.99&#10;  Q 398.75 6.70 405.43 20.60&#10;  Q 409.01 28.07 409.28 38.79&#10;  Z"/>
<path fill="#46bd83" d="&#10;  M 172.11 12.38&#10;  Q 182.70 21.07 187.81 34.19&#10;  Q 192.67 46.69 192.49 59.75&#10;  Q 192.10 89.00 192.28 118.25&#10;  Q 192.32 126.04 195.57 131.47&#10;  Q 190.73 164.33 192.92 197.51&#10;  Q 191.38 196.33 189.95 195.20&#10;  Q 188.17 193.78 186.83 193.29&#10;  C 178.38 190.22 170.13 195.03 167.63 203.43&#10;  Q 167.18 204.94 167.20 210.80&#10;  L 147.20 202.75&#10;  Q 147.14 159.80 147.07 116.75&#10;  Q 147.06 111.66 145.35 107.75&#10;  Q 145.79 102.88 146.38 97.99&#10;  Q 148.68 78.73 154.30 60.24&#10;  Q 156.24 53.85 161.07 41.43&#10;  Q 166.69 27.02 172.11 12.38&#10;  Z"/>
<path fill="#9fc75d" d="&#10;  M 305.70 34.55&#10;  Q 309.90 44.93 309.94 55.26&#10;  Q 310.04 86.38 309.92 117.50&#10;  Q 309.91 120.18 310.20 122.82&#10;  C 311.08 130.56 315.46 135.67 323.51 136.87&#10;  Q 315.12 165.25 303.60 192.50&#10;  Q 295.54 190.89 289.90 196.91&#10;  Q 285.57 201.52 285.59 208.35&#10;  Q 285.70 245.11 285.64 276.84&#10;  C 285.62 288.86 285.48 298.16 277.91 307.14&#10;  Q 271.42 314.83 262.34 318.74&#10;  C 252.03 288.65 248.31 256.89 249.04 225.23&#10;  Q 256.14 226.28 261.12 221.88&#10;  Q 266.15 217.44 266.17 211.50&#10;  Q 266.38 165.75 266.47 120.00&#10;  Q 266.49 112.44 264.31 107.28&#10;  Q 273.12 84.62 283.32 65.19&#10;  Q 292.05 48.57 305.70 34.55&#10;  Z"/>
<path fill="#ae347b" d="&#10;  M 409.28 38.79&#10;  L 410.07 66.41&#10;  Q 389.54 74.25 368.03 76.03&#10;  Q 354.21 77.18 340.37 77.51&#10;  L 340.46 40.01&#10;  Q 374.91 40.67 409.28 38.79&#10;  Z"/>
<path fill="#d83c51" d="&#10;  M 410.07 66.41&#10;  Q 410.15 82.09 413.82 91.90&#10;  Q 421.18 111.54 441.26 116.48&#10;  Q 445.81 117.60 451.07 117.84&#10;  Q 459.22 118.22 460.90 118.53&#10;  Q 478.93 121.86 489.59 137.13&#10;  Q 495.55 145.66 496.64 155.54&#10;  Q 497.33 161.70 496.63 167.71&#10;  Q 496.00 173.14 492.89 179.10&#10;  Q 484.46 195.27 466.77 201.81&#10;  Q 459.74 183.09 445.57 167.32&#10;  Q 423.11 142.32 401.36 122.91&#10;  Q 395.90 118.03 383.11 108.08&#10;  Q 379.63 101.99 373.72 100.09&#10;  C 364.57 97.15 357.07 103.69 355.59 112.49&#10;  Q 355.10 115.34 355.14 125.98&#10;  L 340.40 122.93&#10;  L 340.37 77.51&#10;  Q 354.21 77.18 368.03 76.03&#10;  Q 389.54 74.25 410.07 66.41&#10;  Z"/>
<path fill="#51758e" d="&#10;  M 89.38 105.21&#10;  Q 105.09 131.68 117.68 159.70&#10;  L 117.79 209.46&#10;  Q 92.59 164.19 72.90 115.99&#10;  Q 83.25 113.59 89.38 105.21&#10;  Z"/>
<path fill="#da5f51" d="&#10;  M 466.77 201.81&#10;  C 457.67 204.50 447.17 203.64 440.25 204.19&#10;  Q 431.97 204.84 423.63 209.28&#10;  Q 405.74 188.05 384.47 170.51&#10;  Q 384.55 144.19 384.63 118.01&#10;  Q 384.65 112.32 383.11 108.08&#10;  Q 395.90 118.03 401.36 122.91&#10;  Q 423.11 142.32 445.57 167.32&#10;  Q 459.74 183.09 466.77 201.81&#10;  Z"/>
<path fill="#62598c" d="&#10;  M 72.90 115.99&#10;  Q 92.59 164.19 117.79 209.46&#10;  C 117.97 217.08 122.12 223.43 130.00 224.82&#10;  Q 137.04 235.97 144.93 246.54&#10;  Q 154.71 259.63 167.28 270.28&#10;  Q 167.22 282.78 167.00 286.75&#10;  Q 165.93 305.60 149.38 315.77&#10;  Q 118.26 274.80 108.54 260.66&#10;  Q 97.03 243.90 89.53 231.23&#10;  Q 67.68 194.34 47.28 151.79&#10;  Q 41.59 139.91 35.30 118.94&#10;  C 43.82 117.08 52.82 117.17 61.50 117.42&#10;  Q 65.28 117.52 72.90 115.99&#10;  Z"/>
<path fill="#713e90" d="&#10;  M 35.30 118.94&#10;  Q 41.59 139.91 47.28 151.79&#10;  Q 67.68 194.34 89.53 231.23&#10;  Q 97.03 243.90 108.54 260.66&#10;  Q 118.26 274.80 149.38 315.77&#10;  Q 137.92 322.18 124.74 321.37&#10;  C 106.38 320.23 93.06 308.14 88.29 290.83&#10;  Q 86.86 285.67 86.93 279.02&#10;  Q 86.98 274.24 86.98 254.01&#10;  Q 86.98 245.18 85.91 239.52&#10;  Q 82.26 220.14 66.58 210.21&#10;  Q 59.09 205.46 50.58 204.59&#10;  Q 41.73 203.68 38.63 203.15&#10;  C 10.18 198.24 -6.39 168.44 6.31 141.86&#10;  C 11.46 131.08 23.46 121.31 35.30 118.94&#10;  Z"/>
<path fill="#d2c246" d="&#10;  M 355.14 125.98&#10;  L 355.30 211.90&#10;  Q 346.23 224.98 337.55 238.20&#10;  Q 325.17 257.04 315.21 277.89&#10;  Q 314.73 244.32 314.70 211.12&#10;  Q 314.69 203.77 313.24 200.63&#10;  Q 310.55 194.82 303.60 192.50&#10;  Q 315.12 165.25 323.51 136.87&#10;  Q 334.29 138.36 338.89 128.88&#10;  Q 339.74 127.12 340.40 122.93&#10;  L 355.14 125.98&#10;  Z"/>
<path fill="#e48e41" d="&#10;  M 423.63 209.28&#10;  Q 413.00 215.05 408.84 226.06&#10;  L 384.41 207.19&#10;  L 384.47 170.51&#10;  Q 405.74 188.05 423.63 209.28&#10;  Z"/>
<path fill="#4e848b" d="&#10;  M 167.20 210.80&#10;  L 167.28 270.28&#10;  Q 154.71 259.63 144.93 246.54&#10;  Q 137.04 235.97 130.00 224.82&#10;  C 139.82 225.98 146.17 220.01 147.11 210.51&#10;  Q 147.27 208.93 147.20 202.75&#10;  L 167.20 210.80&#10;  Z"/>
<path fill="#f5bf30" d="&#10;  M 408.84 226.06&#10;  Q 406.35 232.99 406.36 240.50&#10;  Q 406.38 281.38 406.40 282.00&#10;  Q 406.82 296.92 397.24 308.51&#10;  Q 394.08 312.34 387.73 316.30&#10;  Q 382.82 319.35 376.42 320.62&#10;  Q 352.91 325.27 333.78 310.74&#10;  Q 317.51 298.37 315.21 277.89&#10;  Q 325.17 257.04 337.55 238.20&#10;  Q 346.23 224.98 355.30 211.90&#10;  Q 356.68 220.92 363.87 224.37&#10;  Q 368.53 226.61 374.25 224.24&#10;  Q 380.71 221.56 383.01 216.50&#10;  Q 384.43 213.36 384.41 207.19&#10;  L 408.84 226.06&#10;  Z"/>
</svg>