<?xml version="1.0" standalone="no"?>
<!DOCTYPE svg PUBLIC "-//W3C//DTD SVG 20010904//EN"
 "http://www.w3.org/TR/2001/REC-SVG-20010904/DTD/svg10.dtd">
<svg version="1.0" xmlns="http://www.w3.org/2000/svg"
 width="1024.000000pt" height="1024.000000pt" viewBox="0 0 1024.000000 1024.000000"
 preserveAspectRatio="xMidYMid meet">

<g transform="translate(0.000000,1024.000000) scale(0.100000,-0.100000)"
fill="#ffffff" stroke="none">
<path d="M2105 9805 c-202 -38 -410 -104 -533 -171 -48 -26 -120 -65 -161 -86
-68 -35 -109 -63 -200 -138 -20 -16 -63 -51 -96 -78 -57 -47 -116 -109 -160
-167 -11 -15 -27 -35 -35 -44 -32 -35 -166 -254 -212 -346 -72 -142 -162 -492
-182 -700 -3 -33 -6 -476 -7 -985 -2 -746 0 -935 11 -977 l14 -52 -46 -58
c-83 -107 -169 -268 -203 -383 -53 -177 -56 -212 -53 -592 l3 -353 28 -95 c49
-166 142 -335 235 -425 l51 -50 -16 -45 c-14 -40 -16 -147 -17 -985 l-1 -940
33 -140 c17 -77 44 -176 58 -220 64 -196 245 -507 367 -629 34 -34 76 -78 92
-97 66 -75 190 -181 285 -244 54 -36 101 -65 104 -65 3 0 43 -17 88 -39 100
-46 328 -116 463 -141 28 -5 79 -16 115 -26 56 -14 147 -17 650 -23 322 -3
738 -3 925 1 187 3 555 8 818 10 264 1 481 6 484 11 6 11 177 9 189 -3 6 -6
348 -10 914 -11 498 -1 974 -4 1058 -8 200 -8 896 5 947 17 52 13 207 55 316
86 170 47 397 156 513 245 28 22 87 76 131 121 44 45 97 98 119 119 157 148
225 224 263 290 15 25 30 48 34 51 9 7 89 179 89 191 0 5 4 17 9 27 21 40 91
293 100 362 13 93 13 28 8 1120 -3 748 -6 923 -17 959 -12 38 -12 45 0 49 8 3
43 35 77 71 51 52 76 90 123 186 115 237 130 316 130 678 0 295 -8 358 -65
503 -14 35 -37 94 -52 131 -43 111 -99 205 -173 290 l-70 81 20 35 c21 35 21
40 18 1078 -4 1180 6 1033 -88 1324 -44 139 -174 413 -238 502 -63 88 -194
236 -262 296 -292 255 -409 318 -820 443 -170 51 29 48 -3155 50 -2366 1
-2964 -1 -3020 -11z m3580 -279 c507 -77 945 -238 1430 -526 171 -102 232
-146 450 -321 150 -122 366 -328 497 -474 294 -330 520 -696 724 -1170 63
-147 124 -337 113 -349 -6 -6 -31 6 -67 31 -71 50 -183 107 -242 123 -25 7
-85 16 -135 19 l-89 6 -27 40 c-14 22 -61 103 -104 180 -202 364 -499 753
-766 1005 -172 162 -205 189 -374 310 -205 147 -299 203 -520 309 -158 76
-250 111 -425 165 -382 117 -601 153 -1000 163 -327 7 -575 -25 -955 -127
-232 -62 -405 -129 -635 -243 -473 -235 -919 -614 -1208 -1027 -25 -36 -73
-103 -107 -150 -87 -119 -225 -356 -300 -514 l-63 -133 -89 -6 c-99 -6 -177
-30 -344 -108 -58 -27 -110 -49 -116 -49 -6 0 16 78 49 173 32 94 74 217 92
272 31 92 93 237 133 310 9 17 36 71 61 120 45 90 204 336 291 450 47 63 215
256 316 364 137 146 571 486 796 623 153 93 267 150 489 248 233 102 321 133
568 194 269 68 420 96 632 120 19 2 195 3 390 1 329 -2 368 -4 535 -29z m-455
-1391 c16 -8 52 -42 80 -76 l50 -60 3 -792 c1 -436 0 -972 -2 -1192 -2 -220 0
-475 4 -567 l7 -168 199 0 199 0 1 633 c0 347 3 664 7 703 7 63 12 77 46 119
51 62 85 75 197 75 109 0 139 -12 205 -82 l47 -50 -6 -101 c-4 -56 -10 -374
-13 -706 l-7 -604 24 6 c13 4 103 7 199 7 l175 0 2 198 c1 108 6 254 11 325 9
114 12 132 37 166 14 22 45 52 67 67 35 25 51 29 132 32 109 5 127 -2 201 -78
l50 -51 -3 -336 -3 -336 32 7 c17 3 130 6 250 6 l218 0 3 694 3 694 30 44 c17
23 55 58 85 76 52 32 59 33 130 30 99 -6 162 -36 206 -101 39 -57 71 -138 86
-221 15 -82 23 -2620 9 -2747 -18 -157 -113 -304 -236 -365 -47 -22 -64 -26
-106 -21 -90 11 -174 77 -201 158 -7 23 -10 230 -9 652 l2 617 -249 0 -250 0
-4 -304 c-3 -341 0 -324 -82 -390 -35 -29 -45 -31 -129 -35 -106 -4 -154 8
-203 51 -69 60 -69 61 -72 386 l-3 292 -205 0 -206 0 6 -27 c2 -16 6 -310 8
-654 l3 -625 -28 -37 c-44 -59 -95 -79 -194 -78 -108 0 -168 20 -219 72 l-39
40 -3 654 -2 655 -205 0 -205 0 0 -1265 c0 -1049 -2 -1271 -14 -1298 -8 -21
-33 -46 -67 -68 -52 -33 -57 -34 -154 -34 -83 0 -109 4 -152 23 -28 13 -62 35
-75 49 l-23 25 -5 1285 -5 1285 -200 1 -199 2 -1 -645 c-1 -701 1 -675 -57
-726 -38 -34 -80 -45 -179 -47 -80 -2 -100 1 -135 20 -57 31 -104 86 -105 126
-1 18 0 309 1 648 1 339 -2 618 -6 620 -5 2 -93 3 -196 1 l-188 -3 0 -167 c0
-92 -3 -232 -7 -310 -5 -123 -9 -148 -27 -175 -37 -54 -84 -73 -199 -80 -133
-8 -165 1 -234 68 l-56 54 5 310 5 310 -252 -2 -252 -2 5 -125 c2 -69 -1 -220
-7 -337 -8 -152 -8 -288 0 -486 10 -246 9 -281 -5 -325 -17 -52 -69 -109 -123
-136 -80 -40 -219 -1 -302 84 -53 55 -97 169 -111 287 -12 111 -13 2485 0
2669 9 136 35 231 80 295 44 60 184 116 260 102 70 -12 136 -60 182 -132 28
-45 28 -46 28 -205 0 -89 -5 -217 -10 -286 -6 -72 -7 -293 -3 -520 l6 -395
247 0 247 0 6 301 c4 165 10 316 14 334 4 23 26 54 67 96 52 53 68 63 107 68
61 9 163 -8 197 -33 15 -10 41 -34 58 -53 67 -71 64 -56 64 -358 0 -151 3
-291 6 -311 l6 -36 172 -6 c94 -4 181 -4 194 -1 l22 6 0 698 0 697 29 40 c50
69 83 83 198 83 116 0 165 -19 217 -84 l31 -38 3 -705 2 -705 203 4 202 4 1
1357 0 1357 30 41 c35 50 67 75 120 94 53 19 167 19 204 0z m-3639 -1822 c4
-153 5 -2456 2 -2485 l-5 -36 -77 34 c-280 128 -520 343 -610 549 -60 134 -90
228 -101 304 -16 119 -18 644 -3 757 23 160 99 344 208 499 66 93 202 227 275
269 62 37 287 145 303 146 4 0 7 -17 8 -37z m7174 -18 c269 -111 508 -347 613
-604 60 -146 87 -481 73 -886 -9 -259 -15 -284 -107 -452 -101 -186 -225 -309
-429 -426 -83 -47 -222 -107 -249 -107 -15 0 -16 117 -16 1261 0 1005 3 1260
13 1256 6 -3 53 -21 102 -42z m-973 -3450 c66 -14 154 -25 195 -25 l75 0 -7
-27 c-9 -38 -78 -132 -205 -282 -309 -364 -697 -658 -1154 -876 -270 -129
-751 -257 -1063 -285 -423 -36 -826 -19 -1253 54 -146 25 -299 55 -340 66
-371 102 -711 259 -1045 483 -231 155 -496 395 -643 580 -57 72 -139 204 -131
211 8 6 217 75 308 102 93 28 94 28 108 9 72 -104 122 -162 231 -273 160 -162
271 -246 575 -436 250 -156 509 -251 907 -330 276 -55 296 -57 660 -64 462 -7
522 -6 685 19 338 50 697 160 970 296 167 84 451 272 567 376 149 134 344 357
353 404 10 53 11 54 51 37 19 -8 90 -26 156 -39z"/>
</g>
</svg>
